Coordinates
version=1
nRows=14
nColumns=46
inDegrees=yes

Units are S.I. units (second, meters, Newtons, ...)
Angles are in degrees.

endheader
time	pelvis_tilt	pelvis_list	pelvis_rotation	pelvis_tx	pelvis_ty	pelvis_tz	bb_angle	bb_tx	bb_ty	bb_tz	hip_flexion_r	hip_adduction_r	hip_rotation_r	knee_angle_r	knee_angle_r_beta	ankle_angle_r	subtalar_angle_r	mtp_angle_r	crank_angle_r	hip_flexion_l	hip_adduction_l	hip_rotation_l	knee_angle_l	knee_angle_l_beta	ankle_angle_l	subtalar_angle_l	mtp_angle_l	crank_angle_l	lumbar_extension	lumbar_bending	lumbar_rotation	arm_flex_r	arm_add_r	arm_rot_r	elbow_flex_r	pro_sup_r	wrist_flex_r	wrist_dev_r	arm_flex_l	arm_add_l	arm_rot_l	elbow_flex_l	pro_sup_l	wrist_flex_l	wrist_dev_l
      2.50000000	    -25.24341960	     -2.03305842	     21.37378815	      0.47498492	      1.16291744	     -0.20765456	      0.00000000	      0.50000000	      0.00000000	      0.25000000	     36.81512754	     -6.61721627	     -6.40237286	     63.93523869	      1.11588042	    -31.36230578	    -15.72994092	      0.00000000	      0.00000000	     58.87044809	      5.54353668	     10.65594554	     62.84868087	      1.09691641	     11.29454163	      2.78003011	      0.00000000	      0.00000000	    -55.01985627	      0.38019636	    -21.15106773	     57.82755111	     -9.79613741	     52.89965803	     39.52347023	     57.86185425	      0.00000000	      0.00000000	     47.36521251	    -32.64682983	     26.47729253	     84.97475221	     55.13105102	      0.00000000	      0.00000000
      2.50500000	    -24.79000370	     -2.46952101	     20.80268113	      0.47510308	      1.16081280	     -0.20668035	      0.00000000	      0.50000000	      0.00000000	      0.25000000	     37.69053089	     -5.86966650	     -6.28669409	     66.68043882	      1.16379320	    -29.96628551	    -15.65137194	      0.00000000	      0.00000000	     57.51021761	      4.68800599	     11.13472977	     60.79886200	      1.06114032	     10.17067700	      2.38774632	      0.00000000	      0.00000000	    -55.05925769	      0.96295130	    -22.93430778	     60.22426953	     -6.22872953	     57.05979717	     35.19503412	     58.18806522	      0.00000000	      0.00000000	     43.16087830	    -36.05425018	     22.35973553	     88.75006747	     55.07331860	      0.00000000	      0.00000000
      2.51000000	    -24.30298695	     -3.11369235	     20.35200406	      0.47512191	      1.15846352	     -0.20641165	      0.00000000	      0.50000000	      0.00000000	      0.25000000	     38.50541984	     -5.09993794	     -6.54911775	     69.27800629	      1.20912931	    -29.03722385	    -16.13901655	      0.00000000	      0.00000000	     56.17833225	      3.86595054	     11.95018983	     58.86563207	      1.02739910	      9.21695643	      2.46921826	      0.00000000	      0.00000000	    -55.01899517	      1.48578035	    -22.18669522	     60.36531001	     -6.17103585	     57.04206883	     35.21857303	     58.18869639	      0.00000000	      0.00000000	     42.78724967	    -36.40147235	     22.27740358	     88.66767840	     55.05446294	      0.00000000	      0.00000000
      2.51500000	    -24.15637783	     -3.60795548	     19.90244678	      0.47482507	      1.15545185	     -0.20644435	      0.00000000	      0.50000000	      0.00000000	      0.25000000	     39.72319912	     -4.68264717	     -6.71845797	     72.16366144	      1.25949349	    -27.06447586	    -16.04914523	      0.00000000	      0.00000000	     55.14484889	      3.30213075	     12.42001607	     56.92621052	      0.99354980	      7.55259080	      1.19688473	      0.00000000	      0.00000000	    -54.77489819	      2.14213211	    -23.44395856	     61.55962689	     -4.05534562	     59.90369406	     33.76872472	     58.68057523	      0.00000000	      0.00000000	     38.95773360	    -39.05838424	     18.92049060	     91.65353826	     54.92128583	      0.00000000	      0.00000000
      2.52000000	    -23.79020657	     -4.32049501	     19.28760000	      0.47474493	      1.15272563	     -0.20609114	      0.00000000	      0.50000000	      0.00000000	      0.25000000	     40.73204826	     -3.83710330	     -6.94955086	     74.78121263	      1.30517838	    -25.73819994	    -16.62987973	      0.00000000	      0.00000000	     54.03582517	      2.23016089	     12.90561418	     55.18939074	      0.96323658	      6.40085252	      1.13649701	      0.00000000	      0.00000000	    -54.63150304	      2.59141839	    -22.68058576	     61.66793240	     -4.00268600	     59.91547546	     33.84360115	     58.69500741	      0.00000000	      0.00000000	     38.53494826	    -39.57402849	     18.84214314	     91.55795049	     54.89871498	      0.00000000	      0.00000000
      2.52500000	    -23.80314189	     -4.99175972	     18.38962215	      0.47436060	      1.14924873	     -0.20578423	      0.00000000	      0.50000000	      0.00000000	      0.25000000	     42.26444979	     -3.02247687	     -6.83706397	     77.56239974	      1.35371925	    -24.04013699	    -16.51690602	      0.00000000	      0.00000000	     53.20537622	      1.20379838	     13.20338016	     53.48616974	      0.93350977	      5.03536476	      0.09236316	      0.00000000	      0.00000000	    -54.05782147	      2.75464031	    -22.11440664	     61.71181980	     -3.85454590	     60.06292838	     34.10531486	     58.76912600	      0.00000000	      0.00000000	     37.58730423	    -40.63078058	     18.68712362	     91.78774256	     54.91891848	      0.00000000	      0.00000000
      2.53000000	    -23.68508786	     -5.46326949	     17.60730552	      0.47403120	      1.14634386	     -0.20583364	      0.00000000	      0.50000000	      0.00000000	      0.25000000	     43.56179128	     -2.48721797	     -6.79218635	     80.31712625	      1.40179830	    -22.19511652	    -16.43490283	      0.00000000	      0.00000000	     51.92048730	      0.44294463	     13.64090801	     51.49345516	      0.89873034	      3.81508573	     -1.01092488	      0.00000000	      0.00000000	    -53.85557308	      3.03486937	    -22.14145613	     62.05133167	     -3.39220332	     60.78006774	     34.54474411	     58.98989409	      0.00000000	      0.00000000	     35.63936950	    -42.31501526	     17.47997924	     93.19748963	     54.99157153	      0.00000000	      0.00000000
      2.53500000	    -23.37029507	     -6.20748017	     16.74258219	      0.47377078	      1.14371432	     -0.20573523	      0.00000000	      0.50000000	      0.00000000	      0.25000000	     44.66634682	     -1.51446263	     -6.89798133	     82.82677727	      1.44559997	    -20.73171607	    -17.02282077	      0.00000000	      0.00000000	     50.62205371	     -0.79682535	     14.09272217	     49.70504718	      0.86751673	      2.99182681	     -1.15354324	      0.00000000	      0.00000000	    -53.70705084	      3.44034650	    -21.10415020	     62.24336255	     -3.31308493	     60.84346318	     34.59536284	     59.00754356	      0.00000000	      0.00000000	     35.15449079	    -42.81124156	     17.20776766	     93.07491926	     54.94887792	      0.00000000	      0.00000000
      2.54000000	    -23.18704238	     -6.86768186	     15.90654666	      0.47361720	      1.14140056	     -0.20568894	      0.00000000	      0.50000000	      0.00000000	      0.25000000	     45.86262019	     -0.64326452	     -6.90233688	     85.26130237	      1.48809045	    -19.25950982	    -17.47483302	      0.00000000	      0.00000000	     49.37315575	     -1.98035680	     14.47123651	     47.87258009	      0.83553414	      1.94559292	     -1.05030792	      0.00000000	      0.00000000	    -53.47762789	      3.88333265	    -20.18250648	     62.42613572	     -3.17516347	     60.92580382	     34.71727288	     59.03829706	      0.00000000	      0.00000000	     34.56514063	    -43.28965072	     17.05543737	     92.95520189	     54.92246563	      0.00000000	      0.00000000
      2.54500000	    -23.32388094	     -7.51352962	     14.41920741	      0.47348370	      1.13857962	     -0.20486912	      0.00000000	      0.50000000	      0.00000000	      0.25000000	     47.53657987	      0.63468465	     -6.33476241	     87.73513718	      1.53126701	    -17.19736223	    -16.78412139	      0.00000000	      0.00000000	     48.42670647	     -3.64731597	     14.06736086	     46.14628127	      0.80540455	      0.57929158	     -1.45656768	      0.00000000	      0.00000000	    -52.94790576	      3.75721255	    -19.38918009	     62.58487830	     -2.94542948	     61.43391939	     34.96088688	     59.17718876	      0.00000000	      0.00000000	     33.01669557	    -44.39688108	     16.56818491	     93.06257701	     54.90599613	      0.00000000	      0.00000000
      2.55000000	    -23.50897435	     -8.33457053	     12.93244181	      0.47315703	      1.13580534	     -0.20515915	      0.00000000	      0.50000000	      0.00000000	      0.25000000	     49.24087236	      1.90595658	     -6.02986877	     90.02122387	      1.57116675	    -15.62629803	    -16.71153201	      0.00000000	      0.00000000	     47.37166099	     -5.17225463	     14.11917270	     44.35556997	      0.77415074	     -0.31017688	     -2.14797566	      0.00000000	      0.00000000	    -52.39494944	      4.00572337	    -18.44092878	     62.97026555	     -2.70290753	     62.07122022	     35.03148657	     59.31504564	      0.00000000	      0.00000000	     31.46036131	    -45.16062838	     15.92884514	     93.42396529	     54.91112624	      0.00000000	      0.00000000
      2.55500000	    -23.81758953	     -8.92175039	     11.41808553	      0.47270840	      1.13319613	     -0.20592518	      0.00000000	      0.50000000	      0.00000000	      0.25000000	     51.10568985	      2.77118418	     -5.67363302	     92.33099374	      1.61147984	    -14.20741177	    -16.22521952	      0.00000000	      0.00000000	     46.15627895	     -6.36284133	     14.11983628	     42.38384208	      0.73973759	     -1.31043825	     -3.34391440	      0.00000000	      0.00000000	    -52.07101953	      4.55238541	    -19.99004505	     65.61897638	      0.11461351	     68.33371628	     32.48429358	     60.23561694	      0.00000000	      0.00000000	     23.30828685	    -46.94413114	      7.63417630	     97.47711864	     54.61782329	      0.00000000	      0.00000000
      2.56000000	    -23.85408620	     -9.61508185	      9.96719454	      0.47253998	      1.13122776	     -0.20583064	      0.00000000	      0.50000000	      0.00000000	      0.25000000	     52.59107731	      3.95123688	     -5.52458294	     94.37734902	      1.64719548	    -12.88096443	    -16.30322911	      0.00000000	      0.00000000	     44.83660574	     -7.95879440	     13.80182268	     40.60253090	      0.70864785	     -2.24524577	     -3.54661338	      0.00000000	      0.00000000	    -51.76102836	      4.72283076	    -18.76542511	     65.78526423	      0.26213263	     68.36838433	     32.51300158	     60.22273300	      0.00000000	      0.00000000	     22.58181057	    -47.15163792	      7.62483821	     97.04715401	     54.53248465	      0.00000000	      0.00000000
      2.56500000	    -24.10269369	    -10.05751189	      8.36839309	      0.47207133	      1.12901251	     -0.20584770	      0.00000000	      0.50000000	      0.00000000	      0.25000000	     54.36052558	      4.90057655	     -5.14457183	     96.48062480	      1.68390457	    -11.57946783	    -15.89429946	      0.00000000	      0.00000000	     43.56041863	     -9.27541554	     13.33414134	     38.85065315	      0.67807181	     -3.25894058	     -4.19753753	      0.00000000	      0.00000000	    -51.26874910	      4.66537309	    -17.72800500	     66.09835839	      0.39971044	     68.91778564	     32.53818408	     60.33373394	      0.00000000	      0.00000000	     21.74033870	    -47.22421543	      7.36086131	     96.60377354	     54.41410217	      0.00000000	      0.00000000
